<svg width="18" height="18" viewBox="0 0 18 18" fill="none" xmlns="http://www.w3.org/2000/svg">
<path fill-rule="evenodd" clip-rule="evenodd" d="M8.99999 1.29167C4.74279 1.29167 1.29166 4.74281 1.29166 9C1.29166 13.2572 4.74279 16.7083 8.99999 16.7083C13.2572 16.7083 16.7083 13.2572 16.7083 9C16.7083 4.74281 13.2572 1.29167 8.99999 1.29167ZM0.0416565 9C0.0416565 4.05245 4.05244 0.041667 8.99999 0.041667C13.9475 0.041667 17.9583 4.05245 17.9583 9C17.9583 13.9476 13.9475 17.9583 8.99999 17.9583C4.05244 17.9583 0.0416565 13.9476 0.0416565 9ZM8.99999 5.04167C9.34517 5.04167 9.62499 5.32149 9.62499 5.66667V8.375H12.3333C12.6785 8.375 12.9583 8.65482 12.9583 9C12.9583 9.34518 12.6785 9.625 12.3333 9.625H9.62499V12.3333C9.62499 12.6785 9.34517 12.9583 8.99999 12.9583C8.65481 12.9583 8.37499 12.6785 8.37499 12.3333V9.625H5.66666C5.32148 9.625 5.04166 9.34518 5.04166 9C5.04166 8.65482 5.32148 8.375 5.66666 8.375H8.37499V5.66667C8.37499 5.32149 8.65481 5.04167 8.99999 5.04167Z" fill="#120713" fill-opacity="0.4"/>
</svg>
