<svg width="18" height="18" viewBox="0 0 18 18" fill="none" xmlns="http://www.w3.org/2000/svg">
<path fill-rule="evenodd" clip-rule="evenodd" d="M8.99999 0.041687C7.50814 0.041687 6.0774 0.634319 5.02251 1.68921C3.96762 2.7441 3.37499 4.17484 3.37499 5.66669C3.37499 8.49127 2.77057 10.2612 2.2013 11.3049C1.91581 11.8283 1.63575 12.1754 1.43689 12.3853C1.3373 12.4904 1.25764 12.5616 1.20729 12.6035C1.18211 12.6245 1.16424 12.6382 1.15485 12.6452L1.14766 12.6505C0.922466 12.8041 0.822652 13.0864 0.901805 13.3478C0.981617 13.6114 1.22457 13.7917 1.49999 13.7917H16.5C16.7754 13.7917 17.0184 13.6114 17.0982 13.3478C17.1773 13.0864 17.0775 12.8041 16.8523 12.6505L16.8451 12.6452C16.8357 12.6382 16.8179 12.6245 16.7927 12.6035C16.7423 12.5616 16.6627 12.4904 16.5631 12.3853C16.3642 12.1754 16.0842 11.8283 15.7987 11.3049C15.2294 10.2612 14.625 8.49127 14.625 5.66669C14.625 4.17484 14.0324 2.7441 12.9775 1.68921C11.9226 0.634319 10.4918 0.041687 8.99999 0.041687ZM14.7013 11.9035C14.8322 12.1434 14.9639 12.3554 15.0918 12.5417H2.90817C3.03607 12.3554 3.16778 12.1434 3.29867 11.9035C3.9794 10.6555 4.62499 8.67544 4.62499 5.66669C4.62499 4.50636 5.08592 3.39357 5.90639 2.57309C6.72687 1.75262 7.83966 1.29169 8.99999 1.29169C10.1603 1.29169 11.2731 1.75262 12.0936 2.57309C12.9141 3.39357 13.375 4.50636 13.375 5.66669C13.375 8.67544 14.0206 10.6555 14.7013 11.9035ZM8.09856 16.1864C7.92535 15.8878 7.5429 15.7862 7.24432 15.9594C6.94574 16.1326 6.8441 16.515 7.0173 16.8136C7.21875 17.1609 7.5079 17.4492 7.85579 17.6495C8.20369 17.8499 8.59812 17.9554 8.9996 17.9554C9.40107 17.9554 9.7955 17.8499 10.1434 17.6495C10.4913 17.4492 10.7804 17.1609 10.9819 16.8136C11.1551 16.515 11.0534 16.1326 10.7549 15.9594C10.4563 15.7862 10.0738 15.8878 9.90064 16.1864C9.80907 16.3443 9.67764 16.4753 9.5195 16.5664C9.36137 16.6575 9.18209 16.7054 8.9996 16.7054C8.81711 16.7054 8.63782 16.6575 8.47969 16.5664C8.32155 16.4753 8.19012 16.3443 8.09856 16.1864Z" fill="#120713" fill-opacity="0.4"/>
</svg>
