<svg width="18" height="17" viewBox="0 0 18 17" fill="none" xmlns="http://www.w3.org/2000/svg">
<path fill-rule="evenodd" clip-rule="evenodd" d="M3.16667 1.95831C2.8904 1.95831 2.62545 2.06806 2.4301 2.26341C2.23475 2.45876 2.125 2.72371 2.125 2.99998V14.8244L4.39139 12.558C4.5086 12.4408 4.66757 12.375 4.83333 12.375H14.8333C15.1096 12.375 15.3746 12.2652 15.5699 12.0699C15.7653 11.8745 15.875 11.6096 15.875 11.3333V2.99998C15.875 2.72371 15.7653 2.45876 15.5699 2.26341C15.3746 2.06806 15.1096 1.95831 14.8333 1.95831H3.16667ZM1.54621 1.37953C1.97598 0.949756 2.55888 0.708313 3.16667 0.708313H14.8333C15.4411 0.708313 16.024 0.949756 16.4538 1.37953C16.8836 1.8093 17.125 2.39219 17.125 2.99998V11.3333C17.125 11.9411 16.8836 12.524 16.4538 12.9538C16.024 13.3835 15.4411 13.625 14.8333 13.625H5.09222L1.94194 16.7753C1.76319 16.954 1.49437 17.0075 1.26082 16.9107C1.02728 16.814 0.875 16.5861 0.875 16.3333V2.99998C0.875 2.39219 1.11644 1.8093 1.54621 1.37953Z" fill="#120713" fill-opacity="0.4"/>
</svg>
