<svg width="20" height="18" viewBox="0 0 20 18" fill="none" xmlns="http://www.w3.org/2000/svg">
<path fill-rule="evenodd" clip-rule="evenodd" d="M4.79168 4.83333C4.79168 3.33756 6.00424 2.125 7.50001 2.125C8.99578 2.125 10.2083 3.33756 10.2083 4.83333C10.2083 6.3291 8.99578 7.54167 7.50001 7.54167C6.00424 7.54167 4.79168 6.3291 4.79168 4.83333ZM7.50001 0.875C5.31388 0.875 3.54168 2.64721 3.54168 4.83333C3.54168 7.01946 5.31388 8.79167 7.50001 8.79167C9.68614 8.79167 11.4583 7.01946 11.4583 4.83333C11.4583 2.64721 9.68614 0.875 7.50001 0.875ZM4.16668 10.875C3.11686 10.875 2.11004 11.292 1.36771 12.0344C0.625381 12.7767 0.208344 13.7835 0.208344 14.8333V16.5C0.208344 16.8452 0.488166 17.125 0.833343 17.125C1.17852 17.125 1.45834 16.8452 1.45834 16.5V14.8333C1.45834 14.115 1.74368 13.4262 2.2516 12.9183C2.75951 12.4103 3.44838 12.125 4.16668 12.125H10.8333C11.5516 12.125 12.2405 12.4103 12.7484 12.9183C13.2563 13.4262 13.5417 14.115 13.5417 14.8333V16.5C13.5417 16.8452 13.8215 17.125 14.1667 17.125C14.5119 17.125 14.7917 16.8452 14.7917 16.5V14.8333C14.7917 13.7835 14.3746 12.7767 13.6323 12.0344C12.89 11.292 11.8832 10.875 10.8333 10.875H4.16668ZM16.0615 11.452C16.1478 11.1178 16.4887 10.9168 16.8229 11.0031C17.6721 11.2223 18.4244 11.7174 18.9618 12.4106C19.4991 13.1037 19.791 13.9557 19.7917 14.8328V14.8332V16.4999C19.7917 16.8451 19.5119 17.1249 19.1667 17.1249C18.8215 17.1249 18.5417 16.8451 18.5417 16.4999V14.8337V14.8335C18.5412 14.2335 18.3414 13.6506 17.9739 13.1764C17.6062 12.7021 17.0915 12.3634 16.5104 12.2134C16.1762 12.1271 15.9752 11.7862 16.0615 11.452ZM13.4884 1.00277C13.154 0.917149 12.8135 1.11882 12.7279 1.45321C12.6423 1.7876 12.8439 2.12809 13.1783 2.2137C13.7609 2.36287 14.2772 2.70168 14.646 3.17673C15.0147 3.65178 15.2149 4.23604 15.2149 4.8374C15.2149 5.43877 15.0147 6.02303 14.646 6.49808C14.2772 6.97313 13.7609 7.31194 13.1783 7.4611C12.8439 7.54672 12.6423 7.8872 12.7279 8.22159C12.8135 8.55598 13.154 8.75766 13.4884 8.67204C14.3398 8.45403 15.0945 7.95884 15.6334 7.26454C16.1724 6.57024 16.4649 5.71632 16.4649 4.8374C16.4649 3.95848 16.1724 3.10456 15.6334 2.41026C15.0945 1.71596 14.3398 1.22077 13.4884 1.00277Z" fill="#120713" fill-opacity="0.4"/>
</svg>
