<svg width="18" height="18" viewBox="0 0 18 18" fill="none" xmlns="http://www.w3.org/2000/svg">
<path fill-rule="evenodd" clip-rule="evenodd" d="M7.85546 0.349566C8.20352 0.148916 8.59823 0.0432892 9 0.0432892C9.40176 0.0432892 9.79644 0.148907 10.1445 0.34954C10.1449 0.349798 10.1454 0.350056 10.1458 0.350314L15.9768 3.68226L15.9792 3.68364C16.3272 3.88458 16.6163 4.17351 16.8174 4.52144C17.0185 4.86937 17.1246 5.26407 17.125 5.66594V5.66658V12.3332V12.3339C17.1246 12.7358 17.0185 13.1305 16.8174 13.4784C16.6163 13.8263 16.3272 14.1152 15.9792 14.3162L15.9768 14.3176L10.1458 17.6495C10.1454 17.6498 10.1449 17.65 10.1445 17.6503C9.79645 17.8509 9.40176 17.9565 9 17.9565C8.59822 17.9565 8.20351 17.8509 7.85545 17.6502C7.85502 17.65 7.85459 17.6498 7.85417 17.6495L2.02325 14.3176L2.02083 14.3162C1.6728 14.1152 1.38373 13.8263 1.18261 13.4784C0.981497 13.1305 0.875413 12.7358 0.875 12.3339L0.875 12.3332V5.66658L0.875 5.66594C0.875413 5.26407 0.981497 4.86937 1.18261 4.52144C1.38373 4.17351 1.6728 3.88458 2.02083 3.68365L2.02324 3.68226L2.02325 3.68226L7.85546 0.349566ZM9 1.29329C8.81715 1.29329 8.63752 1.34142 8.47917 1.43285L8.47675 1.43423L2.64583 4.76618C2.64549 4.76638 2.64515 4.76657 2.64481 4.76677C2.48707 4.85808 2.35604 4.98918 2.26482 5.14699C2.17346 5.30506 2.12524 5.48436 2.125 5.66692V12.3329C2.12524 12.5155 2.17346 12.6948 2.26482 12.8528C2.35603 13.0106 2.48704 13.1417 2.64476 13.233C2.64512 13.2332 2.64548 13.2334 2.64583 13.2336L8.47675 16.5656L8.47917 16.567C8.63752 16.6584 8.81715 16.7065 9 16.7065C9.18285 16.7065 9.36248 16.6584 9.52083 16.567L9.52325 16.5656L15.3542 13.2336C15.3545 13.2334 15.3549 13.2332 15.3552 13.233C15.513 13.1417 15.644 13.0106 15.7352 12.8528C15.8266 12.6947 15.8748 12.5153 15.875 12.3326V5.66722C15.8748 5.48455 15.8266 5.30514 15.7352 5.14699C15.644 4.98919 15.5129 4.85808 15.3552 4.76677C15.3549 4.76658 15.3545 4.76638 15.3542 4.76618L9.52325 1.43423L9.52083 1.43285L9.52083 1.43285C9.36248 1.34142 9.18285 1.29329 9 1.29329Z" fill="#120713" fill-opacity="0.4"/>
</svg>
