<svg width="18" height="18" viewBox="0 0 18 18" fill="none" xmlns="http://www.w3.org/2000/svg">
<path fill-rule="evenodd" clip-rule="evenodd" d="M10.0822 0.0933552C10.3367 0.203836 10.4879 0.468879 10.4535 0.74419L9.708 6.70833H16.5C16.7425 6.70833 16.9631 6.84862 17.066 7.06824C17.1689 7.28785 17.1354 7.54715 16.9801 7.73345L8.64681 17.7334C8.46919 17.9466 8.17231 18.0171 7.9178 17.9066C7.66329 17.7962 7.51209 17.5311 7.5465 17.2558L8.29202 11.2917H1.50001C1.2575 11.2917 1.03688 11.1514 0.934014 10.9318C0.831152 10.7121 0.864618 10.4529 1.01987 10.2666L9.3532 0.266553C9.53082 0.053407 9.8277 -0.0171254 10.0822 0.0933552ZM2.83441 10.0417H9.00001C9.17928 10.0417 9.34992 10.1186 9.46856 10.253C9.5872 10.3874 9.64242 10.5663 9.62018 10.7442L9.05126 15.2955L15.1656 7.95833H9.00001C8.82074 7.95833 8.6501 7.88136 8.53146 7.74696C8.41282 7.61257 8.3576 7.4337 8.37983 7.25581L8.94875 2.70445L2.83441 10.0417Z" fill="#120713" fill-opacity="0.4"/>
</svg>
