<svg width="18" height="18" viewBox="0 0 18 18" fill="none" xmlns="http://www.w3.org/2000/svg">
<path fill-rule="evenodd" clip-rule="evenodd" d="M1.29166 9C1.29166 4.74281 4.74279 1.29167 8.99999 1.29167C13.2572 1.29167 16.7083 4.74281 16.7083 9C16.7083 13.2572 13.2572 16.7083 8.99999 16.7083C4.74279 16.7083 1.29166 13.2572 1.29166 9ZM8.99999 0.0416679C4.05244 0.0416679 0.0416565 4.05245 0.0416565 9C0.0416565 13.9476 4.05244 17.9583 8.99999 17.9583C13.9475 17.9583 17.9583 13.9476 17.9583 9C17.9583 4.05245 13.9475 0.0416679 8.99999 0.0416679ZM5.66666 8.375C5.32148 8.375 5.04166 8.65482 5.04166 9C5.04166 9.34518 5.32148 9.625 5.66666 9.625H12.3333C12.6785 9.625 12.9583 9.34518 12.9583 9C12.9583 8.65482 12.6785 8.375 12.3333 8.375H5.66666Z" fill="#120713" fill-opacity="0.4"/>
</svg>
