<svg width="12" height="12" viewBox="0 0 12 12" fill="none" xmlns="http://www.w3.org/2000/svg">
<path fill-rule="evenodd" clip-rule="evenodd" d="M6.49998 1.33337C6.49998 1.05723 6.27612 0.833374 5.99998 0.833374C5.72384 0.833374 5.49998 1.05723 5.49998 1.33337V5.50004H1.33331C1.05717 5.50004 0.833313 5.7239 0.833313 6.00004C0.833313 6.27618 1.05717 6.50004 1.33331 6.50004H5.49998V10.6667C5.49998 10.9429 5.72384 11.1667 5.99998 11.1667C6.27612 11.1667 6.49998 10.9429 6.49998 10.6667V6.50004H10.6666C10.9428 6.50004 11.1666 6.27618 11.1666 6.00004C11.1666 5.7239 10.9428 5.50004 10.6666 5.50004H6.49998V1.33337Z" fill="#120713"/>
</svg>
