<svg width="18" height="18" viewBox="0 0 18 18" fill="none" xmlns="http://www.w3.org/2000/svg">
<path fill-rule="evenodd" clip-rule="evenodd" d="M2.125 8.16667C2.125 4.82995 4.82995 2.125 8.16667 2.125C11.5034 2.125 14.2083 4.82995 14.2083 8.16667C14.2083 9.80041 13.5599 11.2827 12.5063 12.3702C12.4807 12.3889 12.4561 12.4099 12.433 12.4331C12.4098 12.4562 12.3889 12.4807 12.3701 12.5064C11.2826 13.5599 9.80037 14.2083 8.16667 14.2083C4.82995 14.2083 2.125 11.5034 2.125 8.16667ZM12.8618 13.7458C11.5933 14.8144 9.95517 15.4583 8.16667 15.4583C4.13959 15.4583 0.875 12.1937 0.875 8.16667C0.875 4.13959 4.13959 0.875 8.16667 0.875C12.1937 0.875 15.4583 4.13959 15.4583 8.16667C15.4583 9.95521 14.8144 11.5934 13.7457 12.8619L16.9419 16.0581C17.1859 16.3021 17.1859 16.6979 16.9419 16.9419C16.6978 17.186 16.3021 17.186 16.058 16.9419L12.8618 13.7458Z" fill="#120713"/>
</svg>
